<svg height="64" viewBox="0 0 64 64" width="64" xmlns="http://www.w3.org/2000/svg"><g fill="none"><path d="m0 0h64v64h-64z" fill="#1da1f2"/><path d="m54.625 19c-1.5.75-3.25 1.25-5 1.5 1.875-1.125 3.25-2.875 4-5-1.75 1-3.625 1.75-5.625 2.125-2.7941384-2.8617629-7.1416356-3.5362252-10.6715056-1.6555568-3.5298701 1.8806685-5.3951169 5.8651993-4.5784944 9.7805568-7-.375-13.75-3.625-18.125-9.25-1.2023881 1.9204557-1.588255 4.2414909-1.0719125 6.4476816.5163426 2.2061908 1.8921539 4.1149183 3.8219125 5.3023184-1.375 0-2.75-.25-4-.875.125 4.125 3 7.75 7 8.625-1.25.375-2.625.375-4 .125 1.25 3.625 4.625 6.125 8.375 6.25-3.625 3-8.5 4.375-13.125 3.625 7.8845289 5.2612398 18.0738781 5.5842521 26.2758137.832969 8.2019357-4.7512831 12.9907568-13.7509702 12.3491863-23.207969 1.75-1.25 3.25-2.75 4.375-4.625" fill="#fff"/></g></svg>